<svg width="24" height="24" viewBox="0 0 24 24" fill="none" xmlns="http://www.w3.org/2000/svg">
<g clip-path="url(#clip0_6714_1179)">
<path d="M23.4901 12.27C23.4901 11.48 23.4201 10.73 23.3001 10H12.0001V14.51H18.4701C18.1801 15.99 17.3301 17.24 16.0701 18.09V21.09H19.9301C22.1901 19 23.4901 15.92 23.4901 12.27Z" fill="#4285F4"/>
<path d="M12.0001 24C15.2401 24 17.9501 22.92 19.9301 21.09L16.0701 18.09C14.9901 18.81 13.6201 19.25 12.0001 19.25C8.87013 19.25 6.22013 17.14 5.27013 14.29H1.29013V17.38C3.26013 21.3 7.31013 24 12.0001 24Z" fill="#34A853"/>
<path d="M5.27012 14.29C5.02012 13.57 4.89012 12.8 4.89012 12C4.89012 11.2 5.03012 10.43 5.27012 9.71V6.62H1.29012C0.470121 8.24 0.00012207 10.06 0.00012207 12C0.00012207 13.94 0.470121 15.76 1.29012 17.38L5.27012 14.29Z" fill="#FBBC05"/>
<path d="M12.0001 4.75C13.7701 4.75 15.3501 5.36 16.6001 6.55L20.0201 3.13C17.9501 1.19 15.2401 0 12.0001 0C7.31013 0 3.26013 2.7 1.29013 6.62L5.27013 9.71C6.22013 6.86 8.87013 4.75 12.0001 4.75Z" fill="#EA4335"/>
</g>
<defs>
<clipPath id="clip0_6714_1179">
<rect width="24" height="24" fill="white"/>
</clipPath>
</defs>
</svg>
