<svg width="200" height="240" viewBox="0 0 200 240" fill="none" xmlns="http://www.w3.org/2000/svg">
<g opacity="0.3">
<path opacity="0.3" d="M139.67 49.25C134.202 49.2447 128.959 47.0709 125.092 43.2053C121.224 39.3398 119.048 34.0979 119.04 28.6299V0H26.9099C19.7729 0 12.9282 2.83523 7.88159 7.88184C2.83499 12.9284 0 19.7729 0 26.9099V189.13C0 196.267 2.83499 203.112 7.88159 208.158C12.9282 213.205 19.7729 216.04 26.9099 216.04H137.51C144.647 216.04 151.491 213.205 156.538 208.158C161.585 203.112 164.42 196.267 164.42 189.13V49.25H139.67Z" fill="#0072FF"/>
</g>
<path d="M164.42 49.25H139.67C134.202 49.2447 128.959 47.0709 125.092 43.2053C121.224 39.3398 119.048 34.0979 119.04 28.6299V0L164.42 49.25Z" fill="#0072FF"/>
<path d="M183.94 170.61H58.8999C50.0302 170.61 42.8398 177.8 42.8398 186.67V223.95C42.8398 232.82 50.0302 240.01 58.8999 240.01H183.94C192.81 240.01 200 232.82 200 223.95V186.67C200 177.8 192.81 170.61 183.94 170.61Z" fill="#0072FF"/>
<path d="M98 196V214H79V196H98Z" fill="white"/>
<path d="M137 196V214H118V196H137Z" fill="white"/>
<path d="M176 196V214H157V196H176Z" fill="white"/>
</svg>
