<svg width="1025" height="213" viewBox="0 0 1025 213" fill="none" xmlns="http://www.w3.org/2000/svg">
<g filter="url(#filter0_f_4290_48548)">
<path opacity="0.8" d="M62 1.42163L233 133.422" stroke="url(#paint0_radial_4290_48548)" stroke-width="40" stroke-linecap="round"/>
<path opacity="0.8" d="M620 54.4216L791 186.422" stroke="url(#paint1_radial_4290_48548)" stroke-width="40" stroke-linecap="round"/>
<path opacity="0.8" d="M282.084 209.944L467.988 249.524C475.745 251.175 478.585 260.768 472.977 266.376L328.752 410.601C323.186 416.167 313.669 413.418 311.928 405.742L270.25 221.937C268.635 214.818 274.945 208.424 282.084 209.944Z" fill="url(#paint2_radial_4290_48548)" fill-opacity="0.5"/>
<path opacity="0.8" d="M432.084 -0.0555995L617.988 39.524C625.745 41.1755 628.585 50.7677 622.977 56.3758L478.752 200.601C473.186 206.167 463.669 203.418 461.928 195.742L420.25 11.9366C418.635 4.8179 424.945 -1.5756 432.084 -0.0555995Z" fill="url(#paint3_radial_4290_48548)" fill-opacity="0.5"/>
<path opacity="0.8" d="M433 31.4216L507 89.4216" stroke="url(#paint4_radial_4290_48548)" stroke-width="40" stroke-linecap="round"/>
<circle opacity="0.8" cx="881.5" cy="23.9216" r="43.5" fill="url(#paint5_radial_4290_48548)" fill-opacity="0.7"/>
</g>
<defs>
<filter id="filter0_f_4290_48548" x="-100" y="-119.578" width="1125" height="720" filterUnits="userSpaceOnUse" color-interpolation-filters="sRGB">
<feFlood flood-opacity="0" result="BackgroundImageFix"/>
<feBlend mode="normal" in="SourceGraphic" in2="BackgroundImageFix" result="shape"/>
<feGaussianBlur stdDeviation="50" result="effect1_foregroundBlur_4290_48548"/>
</filter>
<radialGradient id="paint0_radial_4290_48548" cx="0" cy="0" r="1" gradientUnits="userSpaceOnUse" gradientTransform="translate(147.5 67.4216) rotate(90) scale(66 85.5)">
<stop stop-color="#C084FC"/>
<stop offset="1" stop-color="#76D8F9" stop-opacity="0"/>
</radialGradient>
<radialGradient id="paint1_radial_4290_48548" cx="0" cy="0" r="1" gradientUnits="userSpaceOnUse" gradientTransform="translate(744.274 120.451) rotate(63.103) scale(97.0408 120.216)">
<stop stop-color="#93C5FD"/>
<stop offset="1" stop-color="#B294FC" stop-opacity="0"/>
</radialGradient>
<radialGradient id="paint2_radial_4290_48548" cx="0" cy="0" r="1" gradientUnits="userSpaceOnUse" gradientTransform="translate(481.889 234.238) rotate(-179.419) scale(151.553 178.937)">
<stop stop-color="#67E8F9"/>
<stop offset="1" stop-color="#C084FC"/>
</radialGradient>
<radialGradient id="paint3_radial_4290_48548" cx="0" cy="0" r="1" gradientUnits="userSpaceOnUse" gradientTransform="translate(631.889 24.2383) rotate(-179.419) scale(151.553 178.937)">
<stop stop-color="#67E8F9"/>
<stop offset="1" stop-color="#C084FC"/>
</radialGradient>
<radialGradient id="paint4_radial_4290_48548" cx="0" cy="0" r="1" gradientUnits="userSpaceOnUse" gradientTransform="translate(428.433 38.5834) rotate(45.9679) scale(65.6574 77.4926)">
<stop stop-color="#67E8F9"/>
<stop offset="1" stop-color="#C084FC"/>
</radialGradient>
<radialGradient id="paint5_radial_4290_48548" cx="0" cy="0" r="1" gradientUnits="userSpaceOnUse" gradientTransform="translate(832.63 -8.83567) rotate(52.8473) scale(88.8381 101)">
<stop stop-color="#67E8F9"/>
<stop offset="1" stop-color="#C084FC"/>
</radialGradient>
</defs>
</svg>
