<svg width="1163" height="213" viewBox="0 0 1163 213" fill="none" xmlns="http://www.w3.org/2000/svg">
<g clip-path="url(#clip0_4151_13449)">
<path d="M0 24.4216C0 11.1668 10.7452 0.421631 24 0.421631H1139C1152.25 0.421631 1163 11.1668 1163 24.4216V188.422C1163 201.676 1152.25 212.422 1139 212.422H24C10.7451 212.422 0 201.676 0 188.422V24.4216Z" fill="white"/>
<g filter="url(#filter0_d_4151_13449)">
<rect x="40" y="40.4216" width="103" height="39" rx="19.5" fill="white" shape-rendering="crispEdges"/>
<rect x="40.5" y="40.9216" width="102" height="38" rx="19" stroke="#D1D5DB" shape-rendering="crispEdges"/>
<path d="M66.108 57.7114H63.983C63.9223 57.3629 63.8106 57.0542 63.6477 56.7853C63.4848 56.5125 63.2822 56.2815 63.0398 56.0921C62.7973 55.9027 62.5208 55.7606 62.2102 55.6659C61.9034 55.5675 61.572 55.5182 61.2159 55.5182C60.5833 55.5182 60.0227 55.6773 59.5341 55.9955C59.0455 56.3099 58.6629 56.772 58.3864 57.3819C58.1098 57.9879 57.9716 58.7284 57.9716 59.6034C57.9716 60.4936 58.1098 61.2436 58.3864 61.8534C58.6667 62.4595 59.0492 62.9178 59.5341 63.2284C60.0227 63.5353 60.5814 63.6887 61.2102 63.6887C61.5587 63.6887 61.8845 63.6432 62.1875 63.5523C62.4943 63.4576 62.7689 63.3194 63.0114 63.1375C63.2576 62.9557 63.464 62.7322 63.6307 62.4671C63.8011 62.2019 63.9186 61.8989 63.983 61.558L66.108 61.5694C66.0284 62.1224 65.8561 62.6413 65.5909 63.1262C65.3295 63.611 64.9867 64.0391 64.5625 64.4103C64.1383 64.7777 63.642 65.0656 63.0739 65.2739C62.5057 65.4784 61.875 65.5807 61.1818 65.5807C60.1591 65.5807 59.2462 65.344 58.4432 64.8705C57.6402 64.397 57.0076 63.7133 56.5455 62.8194C56.0833 61.9254 55.8523 60.8534 55.8523 59.6034C55.8523 58.3497 56.0852 57.2777 56.5511 56.3875C57.017 55.4936 57.6515 54.8099 58.4545 54.3364C59.2576 53.8629 60.1667 53.6262 61.1818 53.6262C61.8295 53.6262 62.4318 53.7171 62.9886 53.8989C63.5455 54.0807 64.0417 54.3478 64.4773 54.7C64.9129 55.0485 65.2708 55.4766 65.5511 55.9841C65.8352 56.4879 66.0208 57.0637 66.108 57.7114ZM70.5388 65.5978C69.9858 65.5978 69.4877 65.4993 69.0445 65.3023C68.6051 65.1016 68.2566 64.8061 67.999 64.4159C67.7452 64.0258 67.6184 63.5447 67.6184 62.9728C67.6184 62.4803 67.7093 62.0731 67.8911 61.7512C68.0729 61.4292 68.321 61.1716 68.6354 60.9784C68.9498 60.7853 69.304 60.6394 69.6979 60.5409C70.0956 60.4387 70.5066 60.3648 70.9309 60.3194C71.4422 60.2663 71.857 60.219 72.1752 60.1773C72.4934 60.1319 72.7244 60.0637 72.8684 59.9728C73.0161 59.8781 73.0899 59.7322 73.0899 59.5353V59.5012C73.0899 59.0731 72.963 58.7417 72.7093 58.5069C72.4555 58.272 72.0899 58.1546 71.6127 58.1546C71.1089 58.1546 70.7093 58.2644 70.4138 58.4841C70.1221 58.7038 69.9252 58.9633 69.8229 59.2625L67.9024 58.9898C68.054 58.4595 68.304 58.0163 68.6524 57.6603C69.0009 57.3004 69.4271 57.0315 69.9309 56.8534C70.4346 56.6716 70.9915 56.5807 71.6013 56.5807C72.0218 56.5807 72.4403 56.63 72.857 56.7284C73.2737 56.8269 73.6543 56.9898 73.999 57.2171C74.3437 57.4406 74.6202 57.7455 74.8286 58.1319C75.0407 58.5182 75.1468 59.0012 75.1468 59.5807V65.4216H73.1695V64.2228H73.1013C72.9763 64.4652 72.8002 64.6925 72.5729 64.9046C72.3494 65.1129 72.0672 65.2815 71.7263 65.4103C71.3892 65.5353 70.9934 65.5978 70.5388 65.5978ZM71.0729 64.0864C71.4858 64.0864 71.8437 64.005 72.1468 63.8421C72.4498 63.6754 72.6827 63.4557 72.8456 63.183C73.0123 62.9103 73.0956 62.6129 73.0956 62.2909V61.2625C73.0312 61.3156 72.9214 61.3648 72.7661 61.4103C72.6146 61.4557 72.4441 61.4955 72.2547 61.5296C72.0653 61.5637 71.8778 61.594 71.6922 61.6205C71.5066 61.647 71.3456 61.6697 71.2093 61.6887C70.9024 61.7303 70.6278 61.7985 70.3854 61.8932C70.143 61.9879 69.9517 62.1205 69.8115 62.2909C69.6714 62.4576 69.6013 62.6735 69.6013 62.9387C69.6013 63.3175 69.7396 63.6034 70.0161 63.7966C70.2926 63.9898 70.6449 64.0864 71.0729 64.0864ZM81.6529 56.6944V58.2853H76.6359V56.6944H81.6529ZM77.8745 54.6034H79.9313V62.7966C79.9313 63.0731 79.973 63.2853 80.0563 63.433C80.1434 63.5769 80.2571 63.6754 80.3972 63.7284C80.5374 63.7815 80.6927 63.808 80.8631 63.808C80.9919 63.808 81.1093 63.7985 81.2154 63.7796C81.3252 63.7606 81.4086 63.7436 81.4654 63.7284L81.812 65.3364C81.7021 65.3743 81.5449 65.4159 81.3404 65.4614C81.1396 65.5069 80.8934 65.5334 80.6018 65.5409C80.0866 65.5561 79.6226 65.4784 79.2097 65.308C78.7968 65.1338 78.4692 64.8648 78.2268 64.5012C77.9881 64.1375 77.8707 63.683 77.8745 63.1375V54.6034ZM87.223 65.5921C86.348 65.5921 85.5923 65.4103 84.9559 65.0466C84.3233 64.6792 83.8366 64.1603 83.4957 63.4898C83.1548 62.8156 82.9843 62.022 82.9843 61.1091C82.9843 60.2114 83.1548 59.4235 83.4957 58.7455C83.8404 58.0637 84.3214 57.5334 84.9389 57.1546C85.5563 56.772 86.2817 56.5807 87.115 56.5807C87.6529 56.5807 88.1605 56.6678 88.6377 56.8421C89.1188 57.0125 89.543 57.2777 89.9105 57.6375C90.2817 57.9974 90.5733 58.4557 90.7855 59.0125C90.9976 59.5656 91.1036 60.2247 91.1036 60.9898V61.6205H83.9502V60.2341H89.132C89.1283 59.8402 89.043 59.4898 88.8764 59.183C88.7097 58.8724 88.4767 58.6281 88.1775 58.45C87.882 58.272 87.5373 58.183 87.1434 58.183C86.723 58.183 86.3536 58.2853 86.0355 58.4898C85.7173 58.6906 85.4692 58.9557 85.2911 59.2853C85.1169 59.611 85.0279 59.969 85.0241 60.3591V61.5694C85.0241 62.0769 85.1169 62.5125 85.3025 62.8762C85.4881 63.236 85.7476 63.5125 86.0809 63.7057C86.4142 63.8951 86.8044 63.9898 87.2514 63.9898C87.5506 63.9898 87.8214 63.9481 88.0639 63.8648C88.3063 63.7777 88.5165 63.6508 88.6945 63.4841C88.8726 63.3175 89.007 63.111 89.098 62.8648L91.0184 63.0807C90.8972 63.5883 90.6661 64.0315 90.3252 64.4103C89.9881 64.7853 89.5563 65.0769 89.0298 65.2853C88.5033 65.4898 87.901 65.5921 87.223 65.5921ZM96.7191 68.8762C95.9805 68.8762 95.346 68.7758 94.8157 68.575C94.2854 68.3781 93.8593 68.1129 93.5373 67.7796C93.2154 67.4463 92.9919 67.0769 92.8669 66.6716L94.7191 66.2228C94.8025 66.3932 94.9237 66.5618 95.0828 66.7284C95.2419 66.8989 95.4559 67.0391 95.7248 67.1489C95.9976 67.2625 96.3404 67.3194 96.7532 67.3194C97.3366 67.3194 97.8195 67.1773 98.2021 66.8932C98.5847 66.6129 98.776 66.1508 98.776 65.5069V63.8534H98.6737C98.5676 64.0656 98.4123 64.2834 98.2078 64.5069C98.007 64.7303 97.74 64.9178 97.4066 65.0694C97.0771 65.2209 96.6623 65.2966 96.1623 65.2966C95.4919 65.2966 94.8839 65.1394 94.3385 64.825C93.7968 64.5069 93.365 64.0334 93.043 63.4046C92.7248 62.772 92.5657 61.9803 92.5657 61.0296C92.5657 60.0713 92.7248 59.2625 93.043 58.6034C93.365 57.9406 93.7987 57.4387 94.3441 57.0978C94.8896 56.7531 95.4976 56.5807 96.168 56.5807C96.6794 56.5807 97.0998 56.6678 97.4294 56.8421C97.7627 57.0125 98.0279 57.219 98.2248 57.4614C98.4218 57.7 98.5714 57.9254 98.6737 58.1375H98.7873V56.6944H100.816V65.5637C100.816 66.3099 100.638 66.9273 100.282 67.4159C99.9256 67.9046 99.4388 68.2701 98.8214 68.5125C98.204 68.755 97.5032 68.8762 96.7191 68.8762ZM96.7362 63.683C97.1718 63.683 97.543 63.5769 97.8498 63.3648C98.1566 63.1527 98.3896 62.8478 98.5487 62.45C98.7078 62.0523 98.7873 61.575 98.7873 61.0182C98.7873 60.469 98.7078 59.9879 98.5487 59.575C98.3934 59.1622 98.1623 58.8421 97.8555 58.6148C97.5525 58.3838 97.1794 58.2682 96.7362 58.2682C96.2779 58.2682 95.8953 58.3875 95.5885 58.6262C95.2816 58.8648 95.0506 59.1925 94.8953 59.6091C94.74 60.022 94.6623 60.4917 94.6623 61.0182C94.6623 61.5523 94.74 62.0201 94.8953 62.4216C95.0544 62.8194 95.2873 63.13 95.5941 63.3534C95.9048 63.5731 96.2854 63.683 96.7362 63.683ZM106.811 65.5921C105.958 65.5921 105.22 65.4046 104.595 65.0296C103.97 64.6546 103.485 64.13 103.14 63.4557C102.799 62.7815 102.629 61.9936 102.629 61.0921C102.629 60.1906 102.799 59.4008 103.14 58.7228C103.485 58.0447 103.97 57.5182 104.595 57.1432C105.22 56.7682 105.958 56.5807 106.811 56.5807C107.663 56.5807 108.401 56.7682 109.026 57.1432C109.651 57.5182 110.134 58.0447 110.475 58.7228C110.82 59.4008 110.992 60.1906 110.992 61.0921C110.992 61.9936 110.82 62.7815 110.475 63.4557C110.134 64.13 109.651 64.6546 109.026 65.0296C108.401 65.4046 107.663 65.5921 106.811 65.5921ZM106.822 63.9444C107.284 63.9444 107.67 63.8175 107.981 63.5637C108.292 63.3061 108.523 62.9614 108.674 62.5296C108.829 62.0978 108.907 61.6167 108.907 61.0864C108.907 60.5523 108.829 60.0694 108.674 59.6375C108.523 59.2019 108.292 58.8553 107.981 58.5978C107.67 58.3402 107.284 58.2114 106.822 58.2114C106.348 58.2114 105.954 58.3402 105.64 58.5978C105.329 58.8553 105.096 59.2019 104.941 59.6375C104.79 60.0694 104.714 60.5523 104.714 61.0864C104.714 61.6167 104.79 62.0978 104.941 62.5296C105.096 62.9614 105.329 63.3061 105.64 63.5637C105.954 63.8175 106.348 63.9444 106.822 63.9444ZM112.818 65.4216V56.6944H114.812V58.1489H114.903C115.062 57.6451 115.335 57.2569 115.721 56.9841C116.112 56.7076 116.557 56.5694 117.057 56.5694C117.17 56.5694 117.297 56.575 117.437 56.5864C117.581 56.594 117.701 56.6072 117.795 56.6262V58.5182C117.708 58.4879 117.57 58.4614 117.381 58.4387C117.195 58.4122 117.015 58.3989 116.841 58.3989C116.466 58.3989 116.129 58.4803 115.829 58.6432C115.534 58.8023 115.301 59.0239 115.131 59.308C114.96 59.5921 114.875 59.9197 114.875 60.2909V65.4216H112.818ZM120.786 68.6944C120.506 68.6944 120.246 68.6716 120.007 68.6262C119.773 68.5845 119.585 68.5353 119.445 68.4784L119.922 66.8762C120.221 66.9633 120.489 67.005 120.723 67.0012C120.958 66.9974 121.165 66.9235 121.343 66.7796C121.524 66.6394 121.678 66.4046 121.803 66.075L121.979 65.6034L118.814 56.6944H120.996L123.007 63.2853H123.098L125.115 56.6944H127.303L123.809 66.4784C123.646 66.9406 123.43 67.3364 123.161 67.6659C122.892 67.9993 122.562 68.2531 122.172 68.4273C121.786 68.6053 121.324 68.6944 120.786 68.6944Z" fill="black"/>
</g>
<path d="M1040.57 70.7398V51.2398H1044.45V53.6219H1044.62C1044.8 53.2403 1045.04 52.8525 1045.37 52.4586C1045.7 52.0585 1046.13 51.7261 1046.66 51.4614C1047.2 51.1906 1047.86 51.0552 1048.66 51.0552C1049.69 51.0552 1050.65 51.326 1051.52 51.8677C1052.39 52.4032 1053.09 53.2126 1053.62 54.2959C1054.14 55.3731 1054.4 56.7242 1054.4 58.3492C1054.4 59.9311 1054.15 61.2668 1053.63 62.3563C1053.13 63.4396 1052.44 64.2614 1051.57 64.8215C1050.7 65.3755 1049.73 65.6525 1048.65 65.6525C1047.89 65.6525 1047.24 65.5263 1046.7 65.2739C1046.17 65.0215 1045.74 64.7045 1045.4 64.3229C1045.06 63.9351 1044.8 63.5443 1044.62 63.1503H1044.5V70.7398H1040.57ZM1044.42 58.3307C1044.42 59.174 1044.54 59.9096 1044.77 60.5374C1045 61.1652 1045.34 61.6546 1045.79 62.0054C1046.23 62.3501 1046.77 62.5225 1047.4 62.5225C1048.04 62.5225 1048.58 62.3471 1049.03 61.9962C1049.47 61.6392 1049.81 61.1468 1050.03 60.5189C1050.27 59.8849 1050.38 59.1555 1050.38 58.3307C1050.38 57.5121 1050.27 56.7919 1050.04 56.1702C1049.81 55.5485 1049.48 55.0623 1049.04 54.7114C1048.59 54.3606 1048.05 54.1851 1047.4 54.1851C1046.76 54.1851 1046.22 54.3544 1045.78 54.6929C1045.34 55.0315 1045 55.5116 1044.77 56.1333C1044.54 56.755 1044.42 57.4874 1044.42 58.3307ZM1056.24 65.4216V51.2398H1060.06V53.7142H1060.2C1060.46 52.834 1060.9 52.1693 1061.51 51.7199C1062.11 51.2644 1062.82 51.0367 1063.61 51.0367C1063.81 51.0367 1064.02 51.049 1064.25 51.0736C1064.48 51.0982 1064.68 51.1321 1064.85 51.1752V54.6652C1064.66 54.6098 1064.41 54.5606 1064.08 54.5175C1063.76 54.4744 1063.46 54.4529 1063.19 54.4529C1062.61 54.4529 1062.09 54.5791 1061.63 54.8314C1061.19 55.0776 1060.83 55.4223 1060.56 55.8655C1060.31 56.3087 1060.18 56.8196 1060.18 57.3982V65.4216H1056.24ZM1071.9 65.6986C1070.45 65.6986 1069.19 65.4032 1068.14 64.8123C1067.09 64.2152 1066.28 63.3719 1065.72 62.2824C1065.15 61.1868 1064.87 59.8911 1064.87 58.3954C1064.87 56.9365 1065.15 55.6562 1065.72 54.5544C1066.28 53.4526 1067.08 52.594 1068.11 51.9784C1069.14 51.3629 1070.36 51.0552 1071.75 51.0552C1072.68 51.0552 1073.55 51.206 1074.36 51.5076C1075.17 51.803 1075.88 52.2493 1076.48 52.8463C1077.09 53.4434 1077.57 54.1944 1077.91 55.0992C1078.24 55.9979 1078.41 57.0504 1078.41 58.2569V59.3371H1066.44V56.8996H1074.71C1074.71 56.3333 1074.59 55.8317 1074.34 55.3946C1074.1 54.9576 1073.75 54.616 1073.32 54.3698C1072.89 54.1174 1072.38 53.9912 1071.81 53.9912C1071.21 53.9912 1070.69 54.1297 1070.22 54.4067C1069.77 54.6775 1069.41 55.0438 1069.15 55.5054C1068.89 55.9609 1068.76 56.4687 1068.76 57.0289V59.3463C1068.76 60.0481 1068.89 60.6543 1069.14 61.1652C1069.41 61.6761 1069.78 62.0701 1070.26 62.3471C1070.74 62.624 1071.31 62.7625 1071.97 62.7625C1072.41 62.7625 1072.81 62.701 1073.17 62.5779C1073.53 62.4548 1073.84 62.2701 1074.1 62.0239C1074.36 61.7777 1074.56 61.4761 1074.69 61.1191L1078.33 61.3591C1078.15 62.2332 1077.77 62.9964 1077.19 63.6489C1076.63 64.2952 1075.9 64.7999 1075 65.1631C1074.1 65.5201 1073.07 65.6986 1071.9 65.6986ZM1084.13 46.5125V65.4216H1080.2V46.5125H1084.13ZM1086.5 65.4216V51.2398H1090.44V65.4216H1086.5ZM1088.48 49.4117C1087.9 49.4117 1087.39 49.2178 1086.98 48.83C1086.56 48.4361 1086.36 47.9652 1086.36 47.4174C1086.36 46.8757 1086.56 46.411 1086.98 46.0232C1087.39 45.6293 1087.9 45.4323 1088.48 45.4323C1089.06 45.4323 1089.56 45.6293 1089.98 46.0232C1090.39 46.411 1090.6 46.8757 1090.6 47.4174C1090.6 47.9652 1090.39 48.4361 1089.98 48.83C1089.56 49.2178 1089.06 49.4117 1088.48 49.4117ZM1096.74 57.2228V65.4216H1092.81V51.2398H1096.56V53.7419H1096.72C1097.04 52.9171 1097.56 52.2647 1098.3 51.7846C1099.04 51.2983 1099.94 51.0552 1100.99 51.0552C1101.97 51.0552 1102.83 51.2706 1103.56 51.7015C1104.3 52.1323 1104.87 52.7479 1105.27 53.5481C1105.68 54.3421 1105.88 55.29 1105.88 56.3918V65.4216H1101.95V57.0935C1101.96 56.2256 1101.73 55.5485 1101.28 55.0623C1100.83 54.5698 1100.22 54.3236 1099.43 54.3236C1098.9 54.3236 1098.43 54.4375 1098.02 54.6652C1097.62 54.893 1097.31 55.2254 1097.08 55.6624C1096.86 56.0933 1096.75 56.6134 1096.74 57.2228ZM1114.67 65.6986C1113.21 65.6986 1111.95 65.4032 1110.9 64.8123C1109.85 64.2152 1109.05 63.3719 1108.48 62.2824C1107.91 61.1868 1107.63 59.8911 1107.63 58.3954C1107.63 56.9365 1107.91 55.6562 1108.48 54.5544C1109.05 53.4526 1109.84 52.594 1110.87 51.9784C1111.9 51.3629 1113.12 51.0552 1114.51 51.0552C1115.44 51.0552 1116.31 51.206 1117.12 51.5076C1117.93 51.803 1118.64 52.2493 1119.24 52.8463C1119.85 53.4434 1120.33 54.1944 1120.67 55.0992C1121.01 55.9979 1121.17 57.0504 1121.17 58.2569V59.3371H1109.2V56.8996H1117.47C1117.47 56.3333 1117.35 55.8317 1117.1 55.3946C1116.86 54.9576 1116.51 54.616 1116.08 54.3698C1115.65 54.1174 1115.15 53.9912 1114.57 53.9912C1113.98 53.9912 1113.45 54.1297 1112.98 54.4067C1112.53 54.6775 1112.17 55.0438 1111.91 55.5054C1111.66 55.9609 1111.52 56.4687 1111.52 57.0289V59.3463C1111.52 60.0481 1111.65 60.6543 1111.9 61.1652C1112.17 61.6761 1112.54 62.0701 1113.02 62.3471C1113.5 62.624 1114.07 62.7625 1114.73 62.7625C1115.17 62.7625 1115.57 62.701 1115.93 62.5779C1116.29 62.4548 1116.6 62.2701 1116.86 62.0239C1117.12 61.7777 1117.32 61.4761 1117.45 61.1191L1121.09 61.3591C1120.91 62.2332 1120.53 62.9964 1119.96 63.6489C1119.39 64.2952 1118.66 64.7999 1117.76 65.1631C1116.87 65.5201 1115.83 65.6986 1114.67 65.6986Z" fill="#2563EB"/>
<path d="M1039 70.5921H1122.17V72.3648H1039V70.5921Z" fill="#2563EB"/>
<a href="https://preline.co/">
<rect fill="black" fill-opacity="0" y="-0.232955" width="83.1716" height="31.4659"/>
</a>
<path d="M1008 69.4216V56.4216C1008 49.7942 1013.37 44.4216 1020 44.4216C1026.63 44.4216 1032 49.7942 1032 56.4216C1032 63.049 1026.63 68.4216 1020 68.4216H1019" stroke="#2563EB" stroke-width="2"/>
<path d="M1012 69.4216V56.5816C1012 52.075 1015.58 48.4216 1020 48.4216C1024.42 48.4216 1028 52.075 1028 56.5816C1028 61.0883 1024.42 64.7416 1020 64.7416H1019" stroke="#2563EB" stroke-width="2"/>
<circle cx="1020" cy="56.4431" r="5" fill="#2563EB"/>
<path d="M42.2756 134.422V108.24H52.7585C54.6847 108.24 56.2912 108.525 57.5781 109.096C58.8651 109.667 59.8324 110.46 60.4801 111.474C61.1278 112.48 61.4517 113.639 61.4517 114.951C61.4517 115.974 61.2472 116.873 60.8381 117.649C60.429 118.416 59.8665 119.047 59.1506 119.541C58.4432 120.027 57.6335 120.372 56.7216 120.576V120.832C57.7188 120.875 58.652 121.156 59.5213 121.676C60.3991 122.196 61.1108 122.924 61.6562 123.862C62.2017 124.791 62.4744 125.899 62.4744 127.186C62.4744 128.575 62.1293 129.815 61.4389 130.906C60.7571 131.988 59.7472 132.845 58.4091 133.476C57.071 134.106 55.4219 134.422 53.4616 134.422H42.2756ZM47.8111 129.896H52.3239C53.8665 129.896 54.9915 129.602 55.6989 129.014C56.4063 128.417 56.7599 127.625 56.7599 126.636C56.7599 125.912 56.5852 125.272 56.2358 124.719C55.8864 124.165 55.3878 123.73 54.7401 123.415C54.1009 123.099 53.3381 122.942 52.4517 122.942H47.8111V129.896ZM47.8111 119.196H51.9148C52.6733 119.196 53.3466 119.064 53.9347 118.799C54.5313 118.527 55 118.143 55.3409 117.649C55.6903 117.155 55.8651 116.562 55.8651 115.872C55.8651 114.926 55.5284 114.163 54.8551 113.584C54.1903 113.004 53.2443 112.714 52.017 112.714H47.8111V119.196ZM66.1541 134.422V114.785H71.4339V118.211H71.6385C71.9964 116.993 72.5973 116.072 73.441 115.45C74.2848 114.819 75.2563 114.504 76.3558 114.504C76.6285 114.504 76.9225 114.521 77.2379 114.555C77.5532 114.589 77.8302 114.636 78.0689 114.696V119.528C77.8132 119.451 77.4595 119.383 77.0078 119.324C76.5561 119.264 76.1427 119.234 75.7677 119.234C74.9666 119.234 74.2507 119.409 73.62 119.758C72.9978 120.099 72.5035 120.576 72.137 121.19C71.7791 121.804 71.6001 122.511 71.6001 123.312V134.422H66.1541ZM89.0993 134.805C87.0795 134.805 85.3408 134.396 83.8834 133.578C82.4346 132.751 81.3181 131.584 80.534 130.075C79.7499 128.558 79.3579 126.764 79.3579 124.693C79.3579 122.673 79.7499 120.9 80.534 119.375C81.3181 117.849 82.4218 116.66 83.8451 115.808C85.2769 114.956 86.9559 114.53 88.882 114.53C90.1775 114.53 91.3834 114.738 92.4999 115.156C93.6249 115.565 94.605 116.183 95.4403 117.01C96.284 117.836 96.9403 118.876 97.409 120.129C97.8778 121.373 98.1121 122.831 98.1121 124.501V125.997H81.5312V122.622H92.9857C92.9857 121.838 92.8153 121.143 92.4743 120.538C92.1334 119.933 91.6604 119.46 91.0553 119.119C90.4587 118.77 89.7641 118.595 88.9715 118.595C88.1448 118.595 87.4118 118.787 86.7726 119.17C86.142 119.545 85.6476 120.052 85.2897 120.692C84.9317 121.322 84.7485 122.025 84.74 122.801V126.01C84.74 126.981 84.9189 127.821 85.2769 128.528C85.6434 129.236 86.159 129.781 86.8238 130.165C87.4886 130.548 88.2769 130.74 89.1888 130.74C89.7939 130.74 90.3479 130.655 90.8508 130.484C91.3536 130.314 91.784 130.058 92.142 129.717C92.4999 129.376 92.7726 128.959 92.9601 128.464L97.9971 128.797C97.7414 130.007 97.2172 131.064 96.4246 131.967C95.6405 132.862 94.6263 133.561 93.382 134.064C92.1462 134.558 90.7187 134.805 89.0993 134.805ZM107.446 134.792C106.193 134.792 105.076 134.575 104.096 134.14C103.116 133.697 102.34 133.045 101.769 132.184C101.207 131.315 100.926 130.233 100.926 128.937C100.926 127.846 101.126 126.93 101.527 126.189C101.927 125.447 102.473 124.851 103.163 124.399C103.853 123.947 104.637 123.606 105.515 123.376C106.402 123.146 107.33 122.984 108.302 122.89C109.444 122.771 110.365 122.66 111.063 122.558C111.762 122.447 112.269 122.285 112.585 122.072C112.9 121.859 113.058 121.544 113.058 121.126V121.049C113.058 120.24 112.802 119.613 112.291 119.17C111.788 118.727 111.072 118.505 110.143 118.505C109.163 118.505 108.383 118.723 107.803 119.157C107.224 119.584 106.84 120.12 106.653 120.768L101.616 120.359C101.872 119.166 102.375 118.135 103.125 117.265C103.875 116.388 104.842 115.714 106.027 115.245C107.22 114.768 108.6 114.53 110.169 114.53C111.259 114.53 112.303 114.657 113.301 114.913C114.306 115.169 115.197 115.565 115.973 116.102C116.757 116.639 117.375 117.329 117.826 118.173C118.278 119.008 118.504 120.01 118.504 121.177V134.422H113.339V131.699H113.186C112.87 132.312 112.448 132.853 111.92 133.322C111.392 133.782 110.757 134.145 110.015 134.409C109.274 134.665 108.417 134.792 107.446 134.792ZM109.005 131.034C109.806 131.034 110.514 130.876 111.127 130.561C111.741 130.237 112.223 129.802 112.572 129.257C112.921 128.711 113.096 128.094 113.096 127.403V125.319C112.926 125.43 112.691 125.532 112.393 125.626C112.103 125.711 111.775 125.792 111.409 125.869C111.042 125.937 110.676 126.001 110.309 126.061C109.943 126.112 109.61 126.159 109.312 126.201C108.673 126.295 108.115 126.444 107.637 126.649C107.16 126.853 106.789 127.13 106.525 127.48C106.261 127.821 106.129 128.247 106.129 128.758C106.129 129.5 106.397 130.067 106.934 130.459C107.48 130.842 108.17 131.034 109.005 131.034ZM130.145 134.741C128.653 134.741 127.302 134.358 126.092 133.591C124.89 132.815 123.936 131.677 123.229 130.177C122.53 128.669 122.18 126.819 122.18 124.629C122.18 122.379 122.542 120.508 123.267 119.017C123.991 117.517 124.954 116.396 126.156 115.655C127.366 114.905 128.692 114.53 130.132 114.53C131.231 114.53 132.148 114.717 132.881 115.092C133.622 115.459 134.219 115.919 134.67 116.473C135.131 117.018 135.48 117.555 135.719 118.084H135.885V108.24H141.318V134.422H135.949V131.277H135.719C135.463 131.822 135.101 132.363 134.632 132.9C134.172 133.429 133.571 133.868 132.829 134.217C132.096 134.567 131.202 134.741 130.145 134.741ZM131.871 130.407C132.748 130.407 133.49 130.169 134.095 129.692C134.709 129.206 135.177 128.528 135.501 127.659C135.834 126.79 136 125.771 136 124.603C136 123.436 135.838 122.422 135.514 121.561C135.19 120.7 134.721 120.035 134.108 119.567C133.494 119.098 132.748 118.863 131.871 118.863C130.976 118.863 130.221 119.106 129.608 119.592C128.994 120.078 128.53 120.751 128.214 121.612C127.899 122.473 127.741 123.47 127.741 124.603C127.741 125.745 127.899 126.755 128.214 127.633C128.538 128.503 129.003 129.184 129.608 129.679C130.221 130.165 130.976 130.407 131.871 130.407ZM154.848 134.805C152.836 134.805 151.106 134.379 149.657 133.527C148.217 132.666 147.109 131.473 146.334 129.947C145.567 128.422 145.183 126.666 145.183 124.68C145.183 122.669 145.571 120.905 146.346 119.388C147.13 117.862 148.243 116.673 149.683 115.821C151.123 114.96 152.836 114.53 154.822 114.53C156.535 114.53 158.035 114.841 159.322 115.463C160.609 116.085 161.628 116.959 162.378 118.084C163.128 119.209 163.541 120.53 163.618 122.047H158.478C158.334 121.067 157.95 120.278 157.328 119.682C156.714 119.076 155.909 118.774 154.912 118.774C154.068 118.774 153.331 119.004 152.7 119.464C152.078 119.916 151.592 120.576 151.243 121.446C150.893 122.315 150.719 123.368 150.719 124.603C150.719 125.856 150.889 126.922 151.23 127.799C151.579 128.677 152.069 129.346 152.7 129.807C153.331 130.267 154.068 130.497 154.912 130.497C155.534 130.497 156.092 130.369 156.586 130.113C157.089 129.858 157.503 129.487 157.826 129.001C158.159 128.507 158.376 127.915 158.478 127.224H163.618C163.532 128.724 163.123 130.045 162.39 131.187C161.666 132.321 160.665 133.207 159.386 133.846C158.108 134.486 156.595 134.805 154.848 134.805ZM167.285 134.422V114.785H172.564V118.211H172.769C173.127 116.993 173.728 116.072 174.571 115.45C175.415 114.819 176.387 114.504 177.486 114.504C177.759 114.504 178.053 114.521 178.368 114.555C178.684 114.589 178.961 114.636 179.199 114.696V119.528C178.944 119.451 178.59 119.383 178.138 119.324C177.687 119.264 177.273 119.234 176.898 119.234C176.097 119.234 175.381 119.409 174.75 119.758C174.128 120.099 173.634 120.576 173.268 121.19C172.91 121.804 172.731 122.511 172.731 123.312V134.422H167.285ZM194.787 126.061V114.785H200.233V134.422H195.005V130.855H194.8C194.357 132.005 193.62 132.93 192.588 133.629C191.566 134.328 190.317 134.677 188.843 134.677C187.53 134.677 186.375 134.379 185.378 133.782C184.381 133.186 183.601 132.338 183.039 131.238C182.485 130.139 182.204 128.822 182.195 127.288V114.785H187.641V126.317C187.65 127.476 187.961 128.392 188.574 129.065C189.188 129.738 190.01 130.075 191.042 130.075C191.698 130.075 192.311 129.926 192.883 129.628C193.454 129.321 193.914 128.869 194.263 128.272C194.621 127.676 194.796 126.939 194.787 126.061ZM204.77 134.422V114.785H209.96V118.25H210.19C210.599 117.099 211.281 116.192 212.235 115.527C213.19 114.862 214.332 114.53 215.662 114.53C217.008 114.53 218.154 114.866 219.101 115.54C220.047 116.204 220.677 117.108 220.993 118.25H221.197C221.598 117.125 222.322 116.226 223.37 115.552C224.427 114.87 225.676 114.53 227.116 114.53C228.949 114.53 230.436 115.113 231.578 116.281C232.728 117.44 233.304 119.085 233.304 121.216V134.422H227.87V122.29C227.87 121.199 227.581 120.38 227.001 119.835C226.422 119.29 225.697 119.017 224.828 119.017C223.839 119.017 223.068 119.332 222.514 119.963C221.96 120.585 221.683 121.407 221.683 122.43V134.422H216.403V122.174C216.403 121.211 216.126 120.444 215.572 119.873C215.027 119.302 214.306 119.017 213.412 119.017C212.806 119.017 212.261 119.17 211.775 119.477C211.298 119.775 210.919 120.197 210.637 120.743C210.356 121.28 210.216 121.91 210.216 122.635V134.422H204.77ZM237.888 134.422V108.24H243.334V118.084H243.5C243.739 117.555 244.084 117.018 244.535 116.473C244.996 115.919 245.592 115.459 246.325 115.092C247.067 114.717 247.987 114.53 249.087 114.53C250.518 114.53 251.839 114.905 253.05 115.655C254.26 116.396 255.227 117.517 255.952 119.017C256.676 120.508 257.038 122.379 257.038 124.629C257.038 126.819 256.685 128.669 255.977 130.177C255.278 131.677 254.324 132.815 253.114 133.591C251.912 134.358 250.565 134.741 249.074 134.741C248.017 134.741 247.118 134.567 246.376 134.217C245.643 133.868 245.043 133.429 244.574 132.9C244.105 132.363 243.747 131.822 243.5 131.277H243.257V134.422H237.888ZM243.219 124.603C243.219 125.771 243.381 126.79 243.705 127.659C244.028 128.528 244.497 129.206 245.111 129.692C245.724 130.169 246.47 130.407 247.348 130.407C248.234 130.407 248.984 130.165 249.598 129.679C250.212 129.184 250.676 128.503 250.991 127.633C251.315 126.755 251.477 125.745 251.477 124.603C251.477 123.47 251.32 122.473 251.004 121.612C250.689 120.751 250.224 120.078 249.611 119.592C248.997 119.106 248.243 118.863 247.348 118.863C246.462 118.863 245.712 119.098 245.098 119.567C244.493 120.035 244.028 120.7 243.705 121.561C243.381 122.422 243.219 123.436 243.219 124.603ZM277.19 120.385L272.204 120.692C272.119 120.265 271.936 119.882 271.655 119.541C271.374 119.192 271.003 118.915 270.543 118.71C270.091 118.497 269.55 118.39 268.919 118.39C268.075 118.39 267.364 118.569 266.784 118.927C266.204 119.277 265.915 119.745 265.915 120.334C265.915 120.802 266.102 121.199 266.477 121.522C266.852 121.846 267.496 122.106 268.408 122.302L271.962 123.018C273.871 123.41 275.294 124.041 276.231 124.91C277.169 125.78 277.638 126.922 277.638 128.336C277.638 129.623 277.258 130.753 276.5 131.724C275.75 132.696 274.719 133.454 273.406 134C272.102 134.537 270.598 134.805 268.893 134.805C266.294 134.805 264.223 134.264 262.68 133.182C261.146 132.091 260.247 130.608 259.983 128.733L265.339 128.451C265.501 129.244 265.893 129.849 266.516 130.267C267.138 130.676 267.935 130.88 268.906 130.88C269.861 130.88 270.628 130.697 271.207 130.331C271.795 129.956 272.094 129.474 272.102 128.886C272.094 128.392 271.885 127.987 271.476 127.672C271.067 127.348 270.436 127.101 269.584 126.93L266.183 126.253C264.266 125.869 262.838 125.204 261.901 124.258C260.972 123.312 260.507 122.106 260.507 120.64C260.507 119.379 260.848 118.292 261.53 117.38C262.22 116.469 263.187 115.765 264.432 115.271C265.685 114.777 267.151 114.53 268.829 114.53C271.31 114.53 273.261 115.054 274.685 116.102C276.116 117.15 276.952 118.578 277.19 120.385ZM288.864 112.804V108.24H310.367V112.804H302.351V134.422H296.88V112.804H288.864ZM313.986 134.422V114.785H319.432V134.422H313.986ZM316.722 112.254C315.912 112.254 315.217 111.986 314.638 111.449C314.067 110.903 313.781 110.251 313.781 109.493C313.781 108.743 314.067 108.099 314.638 107.562C315.217 107.017 315.912 106.744 316.722 106.744C317.531 106.744 318.222 107.017 318.793 107.562C319.372 108.099 319.662 108.743 319.662 109.493C319.662 110.251 319.372 110.903 318.793 111.449C318.222 111.986 317.531 112.254 316.722 112.254ZM334.419 114.785V118.876H322.594V114.785H334.419ZM325.279 110.081H330.725V128.388C330.725 128.89 330.801 129.282 330.955 129.564C331.108 129.836 331.321 130.028 331.594 130.139C331.875 130.25 332.199 130.305 332.565 130.305C332.821 130.305 333.077 130.284 333.332 130.241C333.588 130.19 333.784 130.152 333.921 130.126L334.777 134.179C334.504 134.264 334.121 134.362 333.627 134.473C333.132 134.592 332.531 134.665 331.824 134.69C330.511 134.741 329.361 134.567 328.372 134.166C327.392 133.765 326.629 133.143 326.084 132.299C325.538 131.456 325.27 130.39 325.279 129.103V110.081ZM344.015 108.24V134.422H338.569V108.24H344.015ZM357.506 134.805C355.486 134.805 353.748 134.396 352.29 133.578C350.841 132.751 349.725 131.584 348.941 130.075C348.157 128.558 347.765 126.764 347.765 124.693C347.765 122.673 348.157 120.9 348.941 119.375C349.725 117.849 350.829 116.66 352.252 115.808C353.684 114.956 355.363 114.53 357.289 114.53C358.584 114.53 359.79 114.738 360.907 115.156C362.032 115.565 363.012 116.183 363.847 117.01C364.691 117.836 365.347 118.876 365.816 120.129C366.284 121.373 366.519 122.831 366.519 124.501V125.997H349.938V122.622H361.392C361.392 121.838 361.222 121.143 360.881 120.538C360.54 119.933 360.067 119.46 359.462 119.119C358.865 118.77 358.171 118.595 357.378 118.595C356.552 118.595 355.819 118.787 355.179 119.17C354.549 119.545 354.054 120.052 353.696 120.692C353.338 121.322 353.155 122.025 353.147 122.801V126.01C353.147 126.981 353.326 127.821 353.684 128.528C354.05 129.236 354.566 129.781 355.231 130.165C355.895 130.548 356.684 130.74 357.596 130.74C358.201 130.74 358.755 130.655 359.257 130.484C359.76 130.314 360.191 130.058 360.549 129.717C360.907 129.376 361.179 128.959 361.367 128.464L366.404 128.797C366.148 130.007 365.624 131.064 364.831 131.967C364.047 132.862 363.033 133.561 361.789 134.064C360.553 134.558 359.125 134.805 357.506 134.805Z" fill="#1F2937"/>
<path d="M378 121.422C378 113.69 384.268 107.422 392 107.422H505C512.732 107.422 519 113.69 519 121.422C519 129.154 512.732 135.422 505 135.422H392C384.268 135.422 378 129.154 378 121.422Z" fill="#CCFBF1"/>
<g clip-path="url(#clip1_4151_13449)">
<path d="M390.788 115.748C390.352 115.313 389.648 115.313 389.212 115.748L387.035 117.926L390 120.891L392.965 117.926L390.787 115.748H390.788ZM393.495 118.456L390.531 121.422L393.497 124.387L395.674 122.208C396.109 121.773 396.109 121.069 395.674 120.635L393.497 118.456H393.495ZM392.965 124.917L390 121.953L387.035 124.918L389.213 127.096C389.648 127.531 390.352 127.531 390.787 127.096L392.965 124.918V124.917ZM386.505 124.387L389.469 121.422L386.504 118.456L384.326 120.635C383.891 121.07 383.891 121.774 384.326 122.208L386.504 124.387H386.505Z" fill="#2DD4BF"/>
</g>
<path d="M407.865 119.451C407.783 119.193 407.672 118.961 407.533 118.757C407.396 118.549 407.233 118.373 407.043 118.228C406.852 118.081 406.635 117.969 406.391 117.892C406.149 117.815 405.884 117.777 405.594 117.777C405.102 117.777 404.659 117.903 404.264 118.156C403.869 118.409 403.557 118.78 403.327 119.268C403.099 119.754 402.986 120.349 402.986 121.054C402.986 121.761 403.101 122.359 403.331 122.848C403.561 123.336 403.876 123.707 404.277 123.96C404.678 124.213 405.134 124.339 405.645 124.339C406.119 124.339 406.533 124.243 406.885 124.049C407.24 123.856 407.514 123.584 407.707 123.231C407.903 122.876 408.001 122.459 408.001 121.978L408.342 122.042H405.845V120.956H409.276V121.949C409.276 122.682 409.119 123.318 408.807 123.858C408.497 124.395 408.068 124.809 407.52 125.102C406.974 125.395 406.349 125.541 405.645 125.541C404.855 125.541 404.162 125.359 403.565 124.995C402.972 124.632 402.509 124.116 402.176 123.449C401.844 122.778 401.678 121.983 401.678 121.062C401.678 120.366 401.774 119.741 401.967 119.187C402.161 118.633 402.432 118.163 402.781 117.777C403.134 117.388 403.547 117.091 404.021 116.886C404.499 116.679 405.02 116.575 405.585 116.575C406.057 116.575 406.496 116.645 406.902 116.784C407.311 116.923 407.675 117.12 407.993 117.376C408.314 117.632 408.58 117.936 408.79 118.288C409 118.638 409.142 119.025 409.216 119.451H407.865ZM412.179 116.694V125.422H410.905V116.694H412.179ZM416.71 125.554C416.097 125.554 415.561 125.413 415.104 125.132C414.646 124.851 414.291 124.457 414.038 123.951C413.785 123.446 413.659 122.855 413.659 122.179C413.659 121.5 413.785 120.906 414.038 120.397C414.291 119.889 414.646 119.494 415.104 119.213C415.561 118.932 416.097 118.791 416.71 118.791C417.324 118.791 417.859 118.932 418.317 119.213C418.774 119.494 419.129 119.889 419.382 120.397C419.635 120.906 419.761 121.5 419.761 122.179C419.761 122.855 419.635 123.446 419.382 123.951C419.129 124.457 418.774 124.851 418.317 125.132C417.859 125.413 417.324 125.554 416.71 125.554ZM416.714 124.484C417.112 124.484 417.442 124.379 417.703 124.169C417.964 123.959 418.158 123.679 418.283 123.329C418.41 122.98 418.474 122.595 418.474 122.174C418.474 121.757 418.41 121.373 418.283 121.024C418.158 120.672 417.964 120.389 417.703 120.176C417.442 119.963 417.112 119.856 416.714 119.856C416.314 119.856 415.982 119.963 415.717 120.176C415.456 120.389 415.261 120.672 415.133 121.024C415.008 121.373 414.946 121.757 414.946 122.174C414.946 122.595 415.008 122.98 415.133 123.329C415.261 123.679 415.456 123.959 415.717 124.169C415.982 124.379 416.314 124.484 416.714 124.484ZM421.346 125.422V116.694H422.62V119.937H422.697C422.771 119.801 422.877 119.643 423.016 119.464C423.155 119.285 423.349 119.129 423.596 118.995C423.843 118.859 424.17 118.791 424.576 118.791C425.104 118.791 425.576 118.924 425.991 119.192C426.405 119.459 426.731 119.844 426.967 120.346C427.205 120.849 427.325 121.454 427.325 122.162C427.325 122.869 427.207 123.476 426.971 123.981C426.735 124.484 426.411 124.872 425.999 125.145C425.587 125.415 425.117 125.549 424.589 125.549C424.191 125.549 423.866 125.483 423.613 125.349C423.363 125.216 423.167 125.059 423.025 124.88C422.883 124.701 422.773 124.542 422.697 124.403H422.59V125.422H421.346ZM422.594 122.149C422.594 122.609 422.661 123.013 422.795 123.359C422.928 123.706 423.121 123.977 423.374 124.173C423.627 124.366 423.937 124.463 424.303 124.463C424.684 124.463 425.002 124.362 425.258 124.16C425.513 123.956 425.707 123.679 425.837 123.329C425.971 122.98 426.038 122.586 426.038 122.149C426.038 121.717 425.972 121.329 425.842 120.986C425.714 120.642 425.521 120.37 425.262 120.172C425.006 119.973 424.687 119.873 424.303 119.873C423.934 119.873 423.621 119.969 423.366 120.159C423.113 120.349 422.921 120.615 422.79 120.956C422.66 121.297 422.594 121.694 422.594 122.149ZM430.72 125.567C430.305 125.567 429.93 125.49 429.595 125.336C429.26 125.18 428.994 124.954 428.798 124.659C428.605 124.363 428.508 124.001 428.508 123.572C428.508 123.203 428.579 122.899 428.722 122.66C428.864 122.422 429.055 122.233 429.297 122.094C429.538 121.954 429.808 121.849 430.106 121.778C430.405 121.707 430.709 121.653 431.018 121.616C431.41 121.571 431.729 121.534 431.973 121.505C432.217 121.474 432.395 121.424 432.506 121.356C432.616 121.288 432.672 121.177 432.672 121.024V120.994C432.672 120.622 432.567 120.334 432.356 120.129C432.149 119.924 431.839 119.822 431.427 119.822C430.999 119.822 430.66 119.917 430.413 120.108C430.169 120.295 430 120.504 429.906 120.734L428.709 120.461C428.851 120.064 429.058 119.743 429.331 119.498C429.606 119.251 429.923 119.072 430.281 118.961C430.639 118.848 431.016 118.791 431.41 118.791C431.672 118.791 431.949 118.822 432.241 118.885C432.537 118.944 432.812 119.055 433.068 119.217C433.327 119.379 433.538 119.611 433.703 119.912C433.868 120.21 433.95 120.598 433.95 121.075V125.422H432.706V124.527H432.655C432.572 124.692 432.449 124.853 432.284 125.013C432.119 125.172 431.908 125.304 431.649 125.409C431.391 125.514 431.081 125.567 430.72 125.567ZM430.997 124.544C431.349 124.544 431.651 124.474 431.901 124.335C432.153 124.196 432.345 124.014 432.476 123.79C432.609 123.562 432.676 123.319 432.676 123.061V122.217C432.631 122.263 432.543 122.305 432.412 122.345C432.284 122.382 432.138 122.415 431.973 122.443C431.808 122.469 431.648 122.493 431.491 122.515C431.335 122.535 431.204 122.552 431.099 122.567C430.852 122.598 430.626 122.65 430.422 122.724C430.22 122.798 430.058 122.905 429.936 123.044C429.817 123.18 429.757 123.362 429.757 123.589C429.757 123.905 429.874 124.143 430.106 124.305C430.339 124.464 430.636 124.544 430.997 124.544ZM436.981 116.694V125.422H435.707V116.694H436.981ZM449.342 119.532H448.013C447.962 119.248 447.866 118.998 447.727 118.782C447.588 118.567 447.418 118.383 447.216 118.233C447.014 118.082 446.788 117.969 446.538 117.892C446.291 117.815 446.028 117.777 445.75 117.777C445.247 117.777 444.797 117.903 444.399 118.156C444.004 118.409 443.692 118.78 443.462 119.268C443.234 119.757 443.121 120.353 443.121 121.058C443.121 121.768 443.234 122.368 443.462 122.856C443.692 123.345 444.006 123.714 444.403 123.964C444.801 124.214 445.248 124.339 445.746 124.339C446.021 124.339 446.283 124.302 446.53 124.228C446.78 124.152 447.006 124.04 447.207 123.892C447.409 123.744 447.579 123.564 447.719 123.351C447.861 123.135 447.959 122.888 448.013 122.609L449.342 122.613C449.271 123.042 449.133 123.437 448.929 123.798C448.727 124.156 448.467 124.466 448.149 124.727C447.834 124.986 447.473 125.186 447.067 125.328C446.66 125.47 446.217 125.541 445.737 125.541C444.981 125.541 444.308 125.362 443.717 125.004C443.126 124.643 442.66 124.128 442.32 123.457C441.981 122.787 441.812 121.987 441.812 121.058C441.812 120.126 441.983 119.326 442.324 118.659C442.665 117.988 443.131 117.474 443.721 117.116C444.312 116.755 444.984 116.575 445.737 116.575C446.2 116.575 446.632 116.642 447.033 116.775C447.436 116.906 447.798 117.099 448.119 117.355C448.44 117.608 448.706 117.917 448.916 118.284C449.126 118.647 449.268 119.064 449.342 119.532ZM453.633 125.554C453.019 125.554 452.484 125.413 452.026 125.132C451.569 124.851 451.214 124.457 450.961 123.951C450.708 123.446 450.582 122.855 450.582 122.179C450.582 121.5 450.708 120.906 450.961 120.397C451.214 119.889 451.569 119.494 452.026 119.213C452.484 118.932 453.019 118.791 453.633 118.791C454.246 118.791 454.782 118.932 455.239 119.213C455.697 119.494 456.052 119.889 456.305 120.397C456.557 120.906 456.684 121.5 456.684 122.179C456.684 122.855 456.557 123.446 456.305 123.951C456.052 124.457 455.697 124.851 455.239 125.132C454.782 125.413 454.246 125.554 453.633 125.554ZM453.637 124.484C454.035 124.484 454.364 124.379 454.626 124.169C454.887 123.959 455.08 123.679 455.205 123.329C455.333 122.98 455.397 122.595 455.397 122.174C455.397 121.757 455.333 121.373 455.205 121.024C455.08 120.672 454.887 120.389 454.626 120.176C454.364 119.963 454.035 119.856 453.637 119.856C453.236 119.856 452.904 119.963 452.64 120.176C452.378 120.389 452.184 120.672 452.056 121.024C451.931 121.373 451.868 121.757 451.868 122.174C451.868 122.595 451.931 122.98 452.056 123.329C452.184 123.679 452.378 123.959 452.64 124.169C452.904 124.379 453.236 124.484 453.637 124.484ZM458.166 125.422V118.876H459.389V119.942H459.47C459.606 119.581 459.829 119.299 460.139 119.098C460.449 118.893 460.819 118.791 461.251 118.791C461.689 118.791 462.055 118.893 462.351 119.098C462.649 119.302 462.869 119.584 463.011 119.942H463.079C463.236 119.592 463.484 119.314 463.825 119.106C464.166 118.896 464.572 118.791 465.044 118.791C465.638 118.791 466.122 118.977 466.497 119.349C466.875 119.721 467.064 120.282 467.064 121.032V125.422H465.79V121.152C465.79 120.709 465.669 120.388 465.427 120.189C465.186 119.99 464.898 119.89 464.562 119.89C464.148 119.89 463.825 120.018 463.595 120.274C463.365 120.527 463.25 120.852 463.25 121.25V125.422H461.98V121.071C461.98 120.716 461.869 120.43 461.648 120.214C461.426 119.998 461.138 119.89 460.783 119.89C460.541 119.89 460.318 119.954 460.114 120.082C459.912 120.207 459.748 120.382 459.623 120.606C459.501 120.831 459.44 121.091 459.44 121.386V125.422H458.166ZM468.832 127.876V118.876H470.076V119.937H470.182C470.256 119.801 470.363 119.643 470.502 119.464C470.641 119.285 470.834 119.129 471.082 118.995C471.329 118.859 471.655 118.791 472.062 118.791C472.59 118.791 473.062 118.924 473.476 119.192C473.891 119.459 474.216 119.844 474.452 120.346C474.691 120.849 474.81 121.454 474.81 122.162C474.81 122.869 474.692 123.476 474.457 123.981C474.221 124.484 473.897 124.872 473.485 125.145C473.073 125.415 472.603 125.549 472.074 125.549C471.677 125.549 471.351 125.483 471.099 125.349C470.849 125.216 470.653 125.059 470.511 124.88C470.368 124.701 470.259 124.542 470.182 124.403H470.106V127.876H468.832ZM470.08 122.149C470.08 122.609 470.147 123.013 470.28 123.359C470.414 123.706 470.607 123.977 470.86 124.173C471.113 124.366 471.422 124.463 471.789 124.463C472.17 124.463 472.488 124.362 472.743 124.16C472.999 123.956 473.192 123.679 473.323 123.329C473.457 122.98 473.523 122.586 473.523 122.149C473.523 121.717 473.458 121.329 473.327 120.986C473.199 120.642 473.006 120.37 472.748 120.172C472.492 119.973 472.172 119.873 471.789 119.873C471.42 119.873 471.107 119.969 470.851 120.159C470.599 120.349 470.407 120.615 470.276 120.956C470.145 121.297 470.08 121.694 470.08 122.149ZM479.055 125.554C478.441 125.554 477.906 125.413 477.448 125.132C476.991 124.851 476.636 124.457 476.383 123.951C476.13 123.446 476.004 122.855 476.004 122.179C476.004 121.5 476.13 120.906 476.383 120.397C476.636 119.889 476.991 119.494 477.448 119.213C477.906 118.932 478.441 118.791 479.055 118.791C479.669 118.791 480.204 118.932 480.661 119.213C481.119 119.494 481.474 119.889 481.727 120.397C481.98 120.906 482.106 121.5 482.106 122.179C482.106 122.855 481.98 123.446 481.727 123.951C481.474 124.457 481.119 124.851 480.661 125.132C480.204 125.413 479.669 125.554 479.055 125.554ZM479.059 124.484C479.457 124.484 479.786 124.379 480.048 124.169C480.309 123.959 480.502 123.679 480.627 123.329C480.755 122.98 480.819 122.595 480.819 122.174C480.819 121.757 480.755 121.373 480.627 121.024C480.502 120.672 480.309 120.389 480.048 120.176C479.786 119.963 479.457 119.856 479.059 119.856C478.659 119.856 478.326 119.963 478.062 120.176C477.801 120.389 477.606 120.672 477.478 121.024C477.353 121.373 477.291 121.757 477.291 122.174C477.291 122.595 477.353 122.98 477.478 123.329C477.606 123.679 477.801 123.959 478.062 124.169C478.326 124.379 478.659 124.484 479.059 124.484ZM484.862 121.535V125.422H483.588V118.876H484.811V119.942H484.892C485.043 119.595 485.279 119.317 485.6 119.106C485.923 118.896 486.331 118.791 486.823 118.791C487.269 118.791 487.659 118.885 487.995 119.072C488.33 119.257 488.59 119.532 488.774 119.899C488.959 120.265 489.051 120.719 489.051 121.258V125.422H487.777V121.412C487.777 120.937 487.654 120.567 487.406 120.299C487.159 120.03 486.82 119.895 486.388 119.895C486.093 119.895 485.83 119.959 485.6 120.086C485.372 120.214 485.192 120.402 485.058 120.649C484.928 120.893 484.862 121.189 484.862 121.535ZM493.641 125.554C492.996 125.554 492.441 125.416 491.975 125.14C491.512 124.862 491.154 124.471 490.901 123.969C490.651 123.463 490.526 122.87 490.526 122.192C490.526 121.521 490.651 120.93 490.901 120.419C491.154 119.907 491.506 119.508 491.958 119.221C492.412 118.934 492.944 118.791 493.552 118.791C493.921 118.791 494.279 118.852 494.626 118.974C494.972 119.096 495.283 119.288 495.559 119.549C495.834 119.811 496.052 120.15 496.211 120.568C496.37 120.983 496.449 121.487 496.449 122.081V122.532H491.246V121.578H495.201C495.201 121.243 495.133 120.946 494.996 120.687C494.86 120.426 494.668 120.22 494.421 120.069C494.177 119.919 493.89 119.844 493.56 119.844C493.202 119.844 492.89 119.932 492.623 120.108C492.358 120.281 492.154 120.508 492.009 120.79C491.867 121.068 491.796 121.37 491.796 121.697V122.443C491.796 122.88 491.873 123.253 492.026 123.559C492.182 123.866 492.4 124.101 492.678 124.263C492.956 124.422 493.282 124.501 493.654 124.501C493.895 124.501 494.116 124.467 494.314 124.399C494.513 124.328 494.685 124.223 494.83 124.084C494.975 123.944 495.086 123.772 495.162 123.568L496.368 123.785C496.272 124.14 496.099 124.451 495.849 124.719C495.601 124.983 495.29 125.189 494.915 125.336C494.543 125.481 494.118 125.554 493.641 125.554ZM499.197 121.535V125.422H497.923V118.876H499.146V119.942H499.227C499.378 119.595 499.613 119.317 499.934 119.106C500.258 118.896 500.666 118.791 501.157 118.791C501.603 118.791 501.994 118.885 502.329 119.072C502.665 119.257 502.925 119.532 503.109 119.899C503.294 120.265 503.386 120.719 503.386 121.258V125.422H502.112V121.412C502.112 120.937 501.988 120.567 501.741 120.299C501.494 120.03 501.155 119.895 500.723 119.895C500.427 119.895 500.165 119.959 499.934 120.086C499.707 120.214 499.527 120.402 499.393 120.649C499.263 120.893 499.197 121.189 499.197 121.535ZM508.21 118.876V119.899H504.635V118.876H508.21ZM505.594 117.308H506.868V123.5C506.868 123.747 506.905 123.933 506.979 124.058C507.053 124.18 507.148 124.264 507.264 124.309C507.384 124.352 507.513 124.373 507.652 124.373C507.754 124.373 507.844 124.366 507.921 124.352C507.997 124.338 508.057 124.326 508.1 124.318L508.33 125.37C508.256 125.399 508.151 125.427 508.014 125.456C507.878 125.487 507.708 125.504 507.503 125.507C507.168 125.513 506.855 125.453 506.565 125.328C506.276 125.203 506.041 125.01 505.862 124.748C505.683 124.487 505.594 124.159 505.594 123.764V117.308Z" fill="#115E59"/>
<path d="M50.9432 160.569H49.1705C49.1023 160.191 48.9754 159.857 48.7898 159.569C48.6042 159.281 48.3769 159.037 48.108 158.836C47.839 158.636 47.5379 158.484 47.2045 158.382C46.875 158.28 46.5246 158.228 46.1534 158.228C45.483 158.228 44.8826 158.397 44.3523 158.734C43.8258 159.071 43.4091 159.566 43.1023 160.217C42.7992 160.869 42.6477 161.664 42.6477 162.603C42.6477 163.55 42.7992 164.35 43.1023 165.001C43.4091 165.653 43.8277 166.145 44.358 166.478C44.8883 166.812 45.4848 166.978 46.1477 166.978C46.5152 166.978 46.8636 166.929 47.1932 166.831C47.5265 166.728 47.8277 166.579 48.0966 166.382C48.3655 166.185 48.5928 165.944 48.7784 165.66C48.9678 165.372 49.0985 165.043 49.1705 164.672L50.9432 164.677C50.8485 165.249 50.6648 165.776 50.392 166.257C50.1231 166.734 49.7765 167.147 49.3523 167.495C48.9318 167.84 48.4508 168.107 47.9091 168.297C47.3674 168.486 46.7765 168.581 46.1364 168.581C45.1288 168.581 44.2311 168.342 43.4432 167.865C42.6553 167.384 42.0341 166.696 41.5795 165.802C41.1288 164.908 40.9034 163.842 40.9034 162.603C40.9034 161.361 41.1307 160.295 41.5852 159.405C42.0398 158.511 42.661 157.825 43.4489 157.348C44.2367 156.867 45.1326 156.626 46.1364 156.626C46.7538 156.626 47.3295 156.715 47.8636 156.893C48.4015 157.067 48.8845 157.325 49.3125 157.666C49.7405 158.003 50.0947 158.416 50.375 158.905C50.6553 159.389 50.8447 159.944 50.9432 160.569ZM56.6638 168.598C55.8456 168.598 55.1316 168.41 54.5218 168.035C53.9119 167.66 53.4384 167.136 53.1013 166.461C52.7642 165.787 52.5956 164.999 52.5956 164.098C52.5956 163.192 52.7642 162.401 53.1013 161.723C53.4384 161.045 53.9119 160.518 54.5218 160.143C55.1316 159.768 55.8456 159.581 56.6638 159.581C57.482 159.581 58.196 159.768 58.8059 160.143C59.4157 160.518 59.8892 161.045 60.2263 161.723C60.5634 162.401 60.732 163.192 60.732 164.098C60.732 164.999 60.5634 165.787 60.2263 166.461C59.8892 167.136 59.4157 167.66 58.8059 168.035C58.196 168.41 57.482 168.598 56.6638 168.598ZM56.6695 167.172C57.1998 167.172 57.6392 167.031 57.9877 166.751C58.3362 166.471 58.5937 166.098 58.7604 165.632C58.9309 165.166 59.0161 164.653 59.0161 164.092C59.0161 163.535 58.9309 163.024 58.7604 162.558C58.5937 162.088 58.3362 161.711 57.9877 161.427C57.6392 161.143 57.1998 161.001 56.6695 161.001C56.1354 161.001 55.6922 161.143 55.3399 161.427C54.9915 161.711 54.732 162.088 54.5615 162.558C54.3949 163.024 54.3115 163.535 54.3115 164.092C54.3115 164.653 54.3949 165.166 54.5615 165.632C54.732 166.098 54.9915 166.471 55.3399 166.751C55.6922 167.031 56.1354 167.172 56.6695 167.172ZM64.4072 163.24V168.422H62.7083V159.694H64.339V161.115H64.4469C64.6477 160.653 64.9621 160.281 65.3901 160.001C65.8219 159.721 66.3655 159.581 67.0208 159.581C67.6155 159.581 68.1363 159.706 68.5833 159.956C69.0303 160.202 69.3769 160.569 69.6231 161.058C69.8693 161.547 69.9924 162.151 69.9924 162.87V168.422H68.2935V163.075C68.2935 162.442 68.1288 161.948 67.7992 161.592C67.4697 161.232 67.017 161.052 66.4412 161.052C66.0473 161.052 65.6969 161.138 65.3901 161.308C65.0871 161.478 64.8466 161.728 64.6685 162.058C64.4943 162.384 64.4072 162.778 64.4072 163.24ZM76.4247 159.694V161.058H71.6576V159.694H76.4247ZM72.936 157.603H74.6349V165.859C74.6349 166.189 74.6841 166.437 74.7826 166.603C74.8811 166.766 75.008 166.878 75.1633 166.939C75.3224 166.995 75.4947 167.024 75.6803 167.024C75.8167 167.024 75.936 167.014 76.0383 166.995C76.1406 166.977 76.2201 166.961 76.2769 166.95L76.5837 168.353C76.4853 168.391 76.3451 168.429 76.1633 168.467C75.9815 168.509 75.7542 168.531 75.4815 168.535C75.0345 168.543 74.6178 168.463 74.2315 168.297C73.8451 168.13 73.5326 167.872 73.294 167.524C73.0553 167.175 72.936 166.738 72.936 166.211V157.603ZM82.0515 168.598C81.1917 168.598 80.4512 168.414 79.8299 168.047C79.2125 167.675 78.7352 167.155 78.3981 166.484C78.0648 165.81 77.8981 165.02 77.8981 164.115C77.8981 163.221 78.0648 162.433 78.3981 161.751C78.7352 161.069 79.2049 160.537 79.8072 160.155C80.4133 159.772 81.1216 159.581 81.9322 159.581C82.4246 159.581 82.9019 159.662 83.364 159.825C83.8262 159.988 84.2409 160.244 84.6084 160.592C84.9758 160.941 85.2655 161.393 85.4777 161.95C85.6898 162.503 85.7959 163.175 85.7959 163.967V164.569H78.8584V163.297H84.1311C84.1311 162.85 84.0402 162.454 83.8584 162.109C83.6765 161.761 83.4209 161.486 83.0913 161.285C82.7655 161.085 82.383 160.984 81.9436 160.984C81.4663 160.984 81.0496 161.102 80.6936 161.336C80.3413 161.567 80.0686 161.87 79.8754 162.245C79.686 162.617 79.5913 163.02 79.5913 163.456V164.45C79.5913 165.033 79.6936 165.53 79.8981 165.939C80.1065 166.348 80.3962 166.66 80.7674 166.876C81.1387 167.088 81.5724 167.194 82.0686 167.194C82.3905 167.194 82.6841 167.149 82.9493 167.058C83.2144 166.963 83.4436 166.823 83.6368 166.638C83.8299 166.452 83.9777 166.223 84.0799 165.95L85.6879 166.24C85.5591 166.713 85.328 167.128 84.9947 167.484C84.6652 167.836 84.2504 168.111 83.7504 168.308C83.2542 168.501 82.6879 168.598 82.0515 168.598ZM89.4597 163.24V168.422H87.7608V159.694H89.3915V161.115H89.4994C89.7002 160.653 90.0146 160.281 90.4426 160.001C90.8744 159.721 91.418 159.581 92.0733 159.581C92.668 159.581 93.1888 159.706 93.6358 159.956C94.0828 160.202 94.4294 160.569 94.6756 161.058C94.9218 161.547 95.0449 162.151 95.0449 162.87V168.422H93.346V163.075C93.346 162.442 93.1813 161.948 92.8517 161.592C92.5222 161.232 92.0695 161.052 91.4938 161.052C91.0998 161.052 90.7494 161.138 90.4426 161.308C90.1396 161.478 89.8991 161.728 89.721 162.058C89.5468 162.384 89.4597 162.778 89.4597 163.24ZM101.477 159.694V161.058H96.7101V159.694H101.477ZM97.9885 157.603H99.6874V165.859C99.6874 166.189 99.7366 166.437 99.8351 166.603C99.9336 166.766 100.06 166.878 100.216 166.939C100.375 166.995 100.547 167.024 100.733 167.024C100.869 167.024 100.989 167.014 101.091 166.995C101.193 166.977 101.273 166.961 101.329 166.95L101.636 168.353C101.538 168.391 101.398 168.429 101.216 168.467C101.034 168.509 100.807 168.531 100.534 168.535C100.087 168.543 99.6703 168.463 99.284 168.297C98.8976 168.13 98.5851 167.872 98.3465 167.524C98.1078 167.175 97.9885 166.738 97.9885 166.211V157.603ZM111.825 159.694V161.058H107.058V159.694H111.825ZM108.336 157.603H110.035V165.859C110.035 166.189 110.084 166.437 110.183 166.603C110.281 166.766 110.408 166.878 110.563 166.939C110.722 166.995 110.895 167.024 111.08 167.024C111.217 167.024 111.336 167.014 111.438 166.995C111.541 166.977 111.62 166.961 111.677 166.95L111.984 168.353C111.885 168.391 111.745 168.429 111.563 168.467C111.381 168.509 111.154 168.531 110.881 168.535C110.435 168.543 110.018 168.463 109.631 168.297C109.245 168.13 108.933 167.872 108.694 167.524C108.455 167.175 108.336 166.738 108.336 166.211V157.603ZM117.452 168.598C116.592 168.598 115.851 168.414 115.23 168.047C114.613 167.675 114.135 167.155 113.798 166.484C113.465 165.81 113.298 165.02 113.298 164.115C113.298 163.221 113.465 162.433 113.798 161.751C114.135 161.069 114.605 160.537 115.207 160.155C115.813 159.772 116.522 159.581 117.332 159.581C117.825 159.581 118.302 159.662 118.764 159.825C119.226 159.988 119.641 160.244 120.008 160.592C120.376 160.941 120.666 161.393 120.878 161.95C121.09 162.503 121.196 163.175 121.196 163.967V164.569H114.258V163.297H119.531C119.531 162.85 119.44 162.454 119.258 162.109C119.077 161.761 118.821 161.486 118.491 161.285C118.166 161.085 117.783 160.984 117.344 160.984C116.866 160.984 116.45 161.102 116.094 161.336C115.741 161.567 115.469 161.87 115.275 162.245C115.086 162.617 114.991 163.02 114.991 163.456V164.45C114.991 165.033 115.094 165.53 115.298 165.939C115.506 166.348 115.796 166.66 116.167 166.876C116.539 167.088 116.972 167.194 117.469 167.194C117.791 167.194 118.084 167.149 118.349 167.058C118.614 166.963 118.844 166.823 119.037 166.638C119.23 166.452 119.378 166.223 119.48 165.95L121.088 166.24C120.959 166.713 120.728 167.128 120.395 167.484C120.065 167.836 119.65 168.111 119.15 168.308C118.654 168.501 118.088 168.598 117.452 168.598ZM124.299 159.694L126.225 163.092L128.168 159.694H130.026L127.304 164.058L130.049 168.422H128.191L126.225 165.16L124.264 168.422H122.401L125.117 164.058L122.435 159.694H124.299ZM135.924 159.694V161.058H131.157V159.694H135.924ZM132.435 157.603H134.134V165.859C134.134 166.189 134.184 166.437 134.282 166.603C134.38 166.766 134.507 166.878 134.663 166.939C134.822 166.995 134.994 167.024 135.18 167.024C135.316 167.024 135.435 167.014 135.538 166.995C135.64 166.977 135.719 166.961 135.776 166.95L136.083 168.353C135.985 168.391 135.844 168.429 135.663 168.467C135.481 168.509 135.254 168.531 134.981 168.535C134.534 168.543 134.117 168.463 133.731 168.297C133.344 168.13 133.032 167.872 132.793 167.524C132.555 167.175 132.435 166.738 132.435 166.211V157.603ZM145.959 168.598C145.099 168.598 144.359 168.414 143.737 168.047C143.12 167.675 142.643 167.155 142.306 166.484C141.972 165.81 141.806 165.02 141.806 164.115C141.806 163.221 141.972 162.433 142.306 161.751C142.643 161.069 143.112 160.537 143.715 160.155C144.321 159.772 145.029 159.581 145.84 159.581C146.332 159.581 146.809 159.662 147.272 159.825C147.734 159.988 148.148 160.244 148.516 160.592C148.883 160.941 149.173 161.393 149.385 161.95C149.597 162.503 149.703 163.175 149.703 163.967V164.569H142.766V163.297H148.039C148.039 162.85 147.948 162.454 147.766 162.109C147.584 161.761 147.328 161.486 146.999 161.285C146.673 161.085 146.29 160.984 145.851 160.984C145.374 160.984 144.957 161.102 144.601 161.336C144.249 161.567 143.976 161.87 143.783 162.245C143.594 162.617 143.499 163.02 143.499 163.456V164.45C143.499 165.033 143.601 165.53 143.806 165.939C144.014 166.348 144.304 166.66 144.675 166.876C145.046 167.088 145.48 167.194 145.976 167.194C146.298 167.194 146.592 167.149 146.857 167.058C147.122 166.963 147.351 166.823 147.544 166.638C147.737 166.452 147.885 166.223 147.987 165.95L149.595 166.24C149.467 166.713 149.236 167.128 148.902 167.484C148.573 167.836 148.158 168.111 147.658 168.308C147.162 168.501 146.595 168.598 145.959 168.598ZM152.806 159.694L154.732 163.092L156.675 159.694H158.533L155.812 164.058L158.556 168.422H156.698L154.732 165.16L152.772 168.422H150.908L153.624 164.058L150.942 159.694H152.806ZM162.882 168.615C162.329 168.615 161.829 168.513 161.382 168.308C160.935 168.1 160.581 167.799 160.319 167.405C160.062 167.011 159.933 166.528 159.933 165.956C159.933 165.463 160.028 165.058 160.217 164.74C160.406 164.422 160.662 164.17 160.984 163.984C161.306 163.799 161.666 163.658 162.064 163.564C162.461 163.469 162.867 163.397 163.28 163.348C163.802 163.287 164.227 163.238 164.552 163.2C164.878 163.158 165.115 163.092 165.262 163.001C165.41 162.91 165.484 162.763 165.484 162.558V162.518C165.484 162.022 165.344 161.638 165.064 161.365C164.787 161.092 164.374 160.956 163.825 160.956C163.253 160.956 162.802 161.083 162.473 161.336C162.147 161.586 161.922 161.865 161.797 162.172L160.2 161.808C160.389 161.278 160.666 160.85 161.03 160.524C161.397 160.194 161.819 159.956 162.297 159.808C162.774 159.656 163.276 159.581 163.802 159.581C164.151 159.581 164.52 159.622 164.91 159.706C165.304 159.785 165.672 159.933 166.012 160.149C166.357 160.365 166.639 160.674 166.859 161.075C167.079 161.473 167.189 161.99 167.189 162.626V168.422H165.53V167.228H165.461C165.352 167.448 165.187 167.664 164.967 167.876C164.747 168.088 164.465 168.264 164.12 168.405C163.776 168.545 163.363 168.615 162.882 168.615ZM163.251 167.251C163.721 167.251 164.122 167.158 164.456 166.973C164.793 166.787 165.048 166.545 165.223 166.245C165.401 165.942 165.49 165.619 165.49 165.274V164.149C165.429 164.21 165.312 164.266 165.137 164.319C164.967 164.369 164.772 164.412 164.552 164.45C164.333 164.484 164.119 164.516 163.91 164.547C163.702 164.573 163.528 164.596 163.387 164.615C163.058 164.656 162.757 164.727 162.484 164.825C162.215 164.924 161.999 165.066 161.836 165.251C161.677 165.433 161.598 165.675 161.598 165.978C161.598 166.399 161.753 166.717 162.064 166.933C162.374 167.145 162.77 167.251 163.251 167.251ZM169.531 168.422V159.694H171.162V161.115H171.27C171.452 160.634 171.749 160.259 172.162 159.99C172.575 159.717 173.069 159.581 173.645 159.581C174.228 159.581 174.717 159.717 175.111 159.99C175.509 160.263 175.802 160.638 175.992 161.115H176.083C176.291 160.649 176.622 160.278 177.077 160.001C177.531 159.721 178.073 159.581 178.702 159.581C179.494 159.581 180.139 159.829 180.639 160.325C181.143 160.821 181.395 161.569 181.395 162.569V168.422H179.696V162.728C179.696 162.138 179.535 161.71 179.213 161.444C178.891 161.179 178.507 161.047 178.06 161.047C177.507 161.047 177.077 161.217 176.77 161.558C176.463 161.895 176.31 162.329 176.31 162.859V168.422H174.617V162.62C174.617 162.147 174.469 161.766 174.173 161.478C173.878 161.191 173.494 161.047 173.02 161.047C172.698 161.047 172.401 161.132 172.128 161.302C171.859 161.469 171.641 161.702 171.475 162.001C171.312 162.3 171.23 162.647 171.23 163.041V168.422H169.531ZM183.752 171.694V159.694H185.411V161.109H185.553C185.652 160.927 185.794 160.717 185.979 160.478C186.165 160.24 186.423 160.031 186.752 159.853C187.082 159.672 187.517 159.581 188.059 159.581C188.763 159.581 189.392 159.759 189.945 160.115C190.498 160.471 190.932 160.984 191.246 161.655C191.565 162.325 191.724 163.132 191.724 164.075C191.724 165.018 191.566 165.827 191.252 166.501C190.938 167.172 190.506 167.689 189.957 168.052C189.407 168.412 188.78 168.592 188.076 168.592C187.546 168.592 187.112 168.503 186.775 168.325C186.441 168.147 186.18 167.939 185.991 167.7C185.801 167.461 185.655 167.249 185.553 167.064H185.451V171.694H183.752ZM185.417 164.058C185.417 164.672 185.506 165.21 185.684 165.672C185.862 166.134 186.119 166.495 186.457 166.757C186.794 167.014 187.207 167.143 187.695 167.143C188.203 167.143 188.627 167.009 188.968 166.74C189.309 166.467 189.566 166.098 189.741 165.632C189.919 165.166 190.008 164.641 190.008 164.058C190.008 163.482 189.921 162.965 189.746 162.507C189.576 162.049 189.318 161.687 188.974 161.422C188.633 161.156 188.207 161.024 187.695 161.024C187.203 161.024 186.786 161.151 186.445 161.405C186.108 161.658 185.852 162.013 185.678 162.467C185.504 162.922 185.417 163.452 185.417 164.058ZM195.406 156.785V168.422H193.707V156.785H195.406ZM201.533 168.598C200.673 168.598 199.932 168.414 199.311 168.047C198.694 167.675 198.217 167.155 197.879 166.484C197.546 165.81 197.379 165.02 197.379 164.115C197.379 163.221 197.546 162.433 197.879 161.751C198.217 161.069 198.686 160.537 199.288 160.155C199.895 159.772 200.603 159.581 201.413 159.581C201.906 159.581 202.383 159.662 202.845 159.825C203.307 159.988 203.722 160.244 204.09 160.592C204.457 160.941 204.747 161.393 204.959 161.95C205.171 162.503 205.277 163.175 205.277 163.967V164.569H198.34V163.297H203.612C203.612 162.85 203.521 162.454 203.34 162.109C203.158 161.761 202.902 161.486 202.573 161.285C202.247 161.085 201.864 160.984 201.425 160.984C200.948 160.984 200.531 161.102 200.175 161.336C199.823 161.567 199.55 161.87 199.357 162.245C199.167 162.617 199.073 163.02 199.073 163.456V164.45C199.073 165.033 199.175 165.53 199.379 165.939C199.588 166.348 199.877 166.66 200.249 166.876C200.62 167.088 201.054 167.194 201.55 167.194C201.872 167.194 202.165 167.149 202.431 167.058C202.696 166.963 202.925 166.823 203.118 166.638C203.311 166.452 203.459 166.223 203.561 165.95L205.169 166.24C205.04 166.713 204.809 167.128 204.476 167.484C204.146 167.836 203.732 168.111 203.232 168.308C202.735 168.501 202.169 168.598 201.533 168.598Z" fill="#6B7280"/>
<g filter="url(#filter1_f_4151_13449)">
<path opacity="0.8" d="M62 1.42163L233 133.422" stroke="url(#paint0_radial_4151_13449)" stroke-width="40" stroke-linecap="round"/>
<path opacity="0.8" d="M620 54.4216L791 186.422" stroke="url(#paint1_radial_4151_13449)" stroke-width="40" stroke-linecap="round"/>
<path opacity="0.8" d="M282.084 209.944L467.988 249.524C475.745 251.175 478.585 260.768 472.977 266.376L328.752 410.601C323.186 416.167 313.669 413.418 311.928 405.742L270.25 221.937C268.635 214.818 274.945 208.424 282.084 209.944Z" fill="url(#paint2_radial_4151_13449)" fill-opacity="0.5"/>
<path opacity="0.8" d="M432.084 -0.0555995L617.988 39.524C625.745 41.1755 628.585 50.7677 622.977 56.3758L478.752 200.601C473.186 206.167 463.669 203.418 461.928 195.742L420.25 11.9366C418.635 4.8179 424.945 -1.5756 432.084 -0.0555995Z" fill="url(#paint3_radial_4151_13449)" fill-opacity="0.5"/>
<path opacity="0.8" d="M433 31.4216L507 89.4216" stroke="url(#paint4_radial_4151_13449)" stroke-width="40" stroke-linecap="round"/>
<circle opacity="0.8" cx="881.5" cy="23.9216" r="43.5" fill="url(#paint5_radial_4151_13449)" fill-opacity="0.7"/>
</g>
</g>
<path d="M0.5 24.4216C0.5 11.4429 11.0213 0.921631 24 0.921631H1139C1151.98 0.921631 1162.5 11.4429 1162.5 24.4216V188.422C1162.5 201.4 1151.98 211.922 1139 211.922H24C11.0213 211.922 0.5 201.4 0.5 188.422V24.4216Z" stroke="#E5E7EB"/>
<defs>
<filter id="filter0_d_4151_13449" x="38" y="39.4216" width="107" height="43" filterUnits="userSpaceOnUse" color-interpolation-filters="sRGB">
<feFlood flood-opacity="0" result="BackgroundImageFix"/>
<feColorMatrix in="SourceAlpha" type="matrix" values="0 0 0 0 0 0 0 0 0 0 0 0 0 0 0 0 0 0 127 0" result="hardAlpha"/>
<feOffset dy="1"/>
<feGaussianBlur stdDeviation="1"/>
<feComposite in2="hardAlpha" operator="out"/>
<feColorMatrix type="matrix" values="0 0 0 0 0 0 0 0 0 0 0 0 0 0 0 0 0 0 0.05 0"/>
<feBlend mode="normal" in2="BackgroundImageFix" result="effect1_dropShadow_4151_13449"/>
<feBlend mode="normal" in="SourceGraphic" in2="effect1_dropShadow_4151_13449" result="shape"/>
</filter>
<filter id="filter1_f_4151_13449" x="-100" y="-119.578" width="1125" height="720" filterUnits="userSpaceOnUse" color-interpolation-filters="sRGB">
<feFlood flood-opacity="0" result="BackgroundImageFix"/>
<feBlend mode="normal" in="SourceGraphic" in2="BackgroundImageFix" result="shape"/>
<feGaussianBlur stdDeviation="50" result="effect1_foregroundBlur_4151_13449"/>
</filter>
<radialGradient id="paint0_radial_4151_13449" cx="0" cy="0" r="1" gradientUnits="userSpaceOnUse" gradientTransform="translate(147.5 67.4216) rotate(90) scale(66 85.5)">
<stop stop-color="#C084FC"/>
<stop offset="1" stop-color="#76D8F9" stop-opacity="0"/>
</radialGradient>
<radialGradient id="paint1_radial_4151_13449" cx="0" cy="0" r="1" gradientUnits="userSpaceOnUse" gradientTransform="translate(744.274 120.451) rotate(63.103) scale(97.0408 120.216)">
<stop stop-color="#93C5FD"/>
<stop offset="1" stop-color="#B294FC" stop-opacity="0"/>
</radialGradient>
<radialGradient id="paint2_radial_4151_13449" cx="0" cy="0" r="1" gradientUnits="userSpaceOnUse" gradientTransform="translate(481.889 234.238) rotate(-179.419) scale(151.553 178.937)">
<stop stop-color="#67E8F9"/>
<stop offset="1" stop-color="#C084FC"/>
</radialGradient>
<radialGradient id="paint3_radial_4151_13449" cx="0" cy="0" r="1" gradientUnits="userSpaceOnUse" gradientTransform="translate(631.889 24.2383) rotate(-179.419) scale(151.553 178.937)">
<stop stop-color="#67E8F9"/>
<stop offset="1" stop-color="#C084FC"/>
</radialGradient>
<radialGradient id="paint4_radial_4151_13449" cx="0" cy="0" r="1" gradientUnits="userSpaceOnUse" gradientTransform="translate(428.433 38.5834) rotate(45.9679) scale(65.6574 77.4926)">
<stop stop-color="#67E8F9"/>
<stop offset="1" stop-color="#C084FC"/>
</radialGradient>
<radialGradient id="paint5_radial_4151_13449" cx="0" cy="0" r="1" gradientUnits="userSpaceOnUse" gradientTransform="translate(832.63 -8.83567) rotate(52.8473) scale(88.8381 101)">
<stop stop-color="#67E8F9"/>
<stop offset="1" stop-color="#C084FC"/>
</radialGradient>
<clipPath id="clip0_4151_13449">
<path d="M0 24.4216C0 11.1668 10.7452 0.421631 24 0.421631H1139C1152.25 0.421631 1163 11.1668 1163 24.4216V188.422C1163 201.676 1152.25 212.422 1139 212.422H24C10.7451 212.422 0 201.676 0 188.422V24.4216Z" fill="white"/>
</clipPath>
<clipPath id="clip1_4151_13449">
<rect width="12" height="12" fill="white" transform="translate(384 115.422)"/>
</clipPath>
</defs>
</svg>
